<svg xmlns="http://www.w3.org/2000/svg" viewBox="0 0 89.46 89.62"><path d="M65.74,3.76c-5.31,1.62-9.33,5.89-12.83,10-2.71,3.45-.12,7.41,1.4,10.77-3.17,4.93-9.66-11.39-13.06-13.4C30.85,1.4,13.12,1.3,5.92,14.81-5.12,46,34.06,64.52,52,83.4c6.41-20.81,29.24-31,33.35-52.88C89.26,18.23,81-1,65.74,3.76Zm-49.07,44c-1.78,0-3.15-2.11-1.25-3.1C18.15,43.82,19.45,47,16.67,47.72Zm5.15,4.93c-2.2.51-3.66-2.43-1.35-3.2C22.62,48.74,24.07,52.06,21.82,52.65ZM68,12.38c-2.06-1.88,1.08-4.81,1.6-6.92,1-1.49,3.37.26,2.83,1.68C71.34,8.88,70.75,13.47,68,12.38Zm3.18,6a5.4,5.4,0,0,1-1.94-.35c.27-2.51,3.86-12.12,7.18-10.19C78.45,9.07,72.68,17.53,71.15,18.41ZM73,21.15c-.11-2.62,2-4.95,3.37-7,1.23-1.34,4.46.59,2.85,2.57C77.9,18.29,75.31,24.7,73,21.15ZM82,32.45c-1.17,1.9-2.35,3.88-4.75,1.35C77.27,31.24,82.57,28.38,82,32.45Zm-.37-9a45.63,45.63,0,0,1-3.54,4.77c-4.52,1.58-.8-6.36,1.33-6.89C80.56,20.93,82.34,22.23,81.61,23.46Z" style="fill:none"/><path d="M89,18.68c-3.34-24-30.81-24.21-40.75-4.39C39.54,4.3,23.44-4.91,11,3.74-.17,10.91-3,26,3.27,37.46c7,15.75,21.2,26.16,33.92,37.07,4.32,4.4,11.65,7.75,12.25,14.49,1.26.87,2.41.57,4,.49C59.47,63,93.93,48.57,89,18.68Z"/><path d="M85.3,30.52C81.19,52.45,58.36,62.59,52,83.4,34.07,64.55-5.14,45.94,5.92,14.81c7.2-13.5,24.92-13.42,35.32-3.66,3.43,2,9.9,18.35,13.06,13.4-1.51-3.36-4.1-7.32-1.39-10.77,3.49-4.13,7.52-8.4,12.83-10C81-1,89.26,18.23,85.3,30.52Z" style="fill:#dd3b00"/><path d="M76.39,7.87c-3.32-1.93-6.91,7.66-7.18,10.19,1.34.46,2.51.61,3.26-.73C73.45,14.54,78.2,10.63,76.39,7.87Z"/><path d="M76.52,20.75c.85-1.83,4.16-4.33,2.73-6.33C75.8,11.67,74,18.09,73,20.49,72.93,22.91,75.67,22.45,76.52,20.75Z"/><path d="M70.15,11.88c1-2,4.39-6.77.14-7-1.65,1.24-2,3.82-3,5.63C66.59,12.19,69.23,13.44,70.15,11.88Z"/><path d="M79.4,21.34c-2.14,1-3.13,3.94-3.58,6.06,2,3.45,4.46-2.45,5.79-3.94C82.34,22.23,80.56,20.93,79.4,21.34Z"/><path d="M80.31,30.41c-1.77.43-2.56,1.82-3.08,3.39C80,37.75,84.61,30.22,80.31,30.41Z"/><path d="M16.67,44.58a7,7,0,0,0-1.25,0c-1.9,1-.53,3.14,1.25,3.1S18.86,44.51,16.67,44.58Z"/><path d="M20.47,49.45c-2.31.77-.84,3.71,1.35,3.2S22.62,48.74,20.47,49.45Z"/></svg>